<svg id="space_x5F_rover" enable-background="new 0 0 300 300" height="512" viewBox="0 0 300 300" width="512" xmlns="http://www.w3.org/2000/svg"><circle cx="178" cy="122" fill="#edebdc" r="90"/><path d="m104 176c-2.211 0-4-1.789-4-4v-40c0-2.211 1.789-4 4-4s4 1.789 4 4v40c0 2.211-1.789 4-4 4z" fill="#4c241d"/><path d="m114.158 89.66c1.198 3.902 1.842 8.046 1.842 12.34 0 23.196-18.804 42-42 42-4.462 0-8.762-.696-12.797-1.985z" fill="#fff"/><path d="m74 148c-4.785 0-9.5-.73-14.016-2.176-1.332-.426-2.344-1.516-2.672-2.875-.324-1.363.082-2.793 1.078-3.777l52.953-52.355c.996-.984 2.43-1.375 3.789-1.035 1.355.34 2.438 1.367 2.848 2.703 1.34 4.363 2.02 8.91 2.02 13.516 0 25.362-20.637 45.999-46 45.999zm-4.77-8.297c1.575.199 3.168.297 4.77.297 20.953 0 38-17.047 38-38 0-1.457-.082-2.906-.246-4.34z" fill="#4c241d"/><path d="m84 116c-1.023 0-2.047-.391-2.828-1.172l-8-8c-1.562-1.562-1.562-4.094 0-5.656s4.094-1.562 5.656 0l8 8c1.562 1.562 1.562 4.094 0 5.656-.781.781-1.805 1.172-2.828 1.172z" fill="#4c241d"/><circle cx="72" cy="100" fill="#ffce56" r="6.118"/><path d="m72 110.117c-5.578 0-10.117-4.539-10.117-10.117s4.539-10.117 10.117-10.117 10.117 4.539 10.117 10.117-4.539 10.117-10.117 10.117zm0-12.234c-1.168 0-2.117.949-2.117 2.117s.949 2.117 2.117 2.117 2.117-.949 2.117-2.117-.949-2.117-2.117-2.117z" fill="#4c241d"/><path d="m49.344 104c-2.211 0-4-1.789-4-4 0-14.699 11.957-26.656 26.656-26.656 2.211 0 4 1.789 4 4s-1.789 4-4 4c-10.285 0-18.656 8.371-18.656 18.656 0 2.211-1.789 4-4 4z" fill="#4c241d"/><path d="m34.156 104c-2.211 0-4-1.789-4-4 0-23.074 18.77-41.844 41.844-41.844 2.211 0 4 1.789 4 4s-1.789 4-4 4c-18.66 0-33.844 15.184-33.844 33.844 0 2.211-1.789 4-4 4z" fill="#4c241d"/><path d="m267.921 228c0-14.818-8.06-27.699-19.921-34.282v-41.718l-32 16.432v15.568h-24l5.855-20.414c1.074-3.746-1.738-7.478-5.634-7.478-2.521 0-4.76 1.612-5.559 4.003l-10.662 31.889h-68v-20h-28v-15.892l-20 16.432v17.928c-16.083 4.512-27.92 19.584-27.92 37.532h27.92 188z" fill="#c1dbdc"/><path d="m267.922 232h-235.844c-2.211 0-4-1.789-4-4 0-18.219 11.336-34.426 27.922-40.445v-15.016c0-1.195.535-2.332 1.461-3.09l20-16.43c1.195-.988 2.852-1.184 4.25-.527 1.398.66 2.289 2.07 2.289 3.617v11.891h24c2.211 0 4 1.789 4 4v16h61.121l9.746-29.16c1.348-4.027 5.109-6.73 9.355-6.73 3.125 0 5.992 1.43 7.875 3.926 1.879 2.496 2.465 5.648 1.602 8.652l-4.39 15.312h14.691v-11.566c0-1.5.84-2.875 2.172-3.559l32-16.434c1.238-.633 2.719-.582 3.914.145 1.188.727 1.914 2.02 1.914 3.414v39.441c12.348 7.805 19.922 21.594 19.922 36.559 0 2.211-1.789 4-4 4zm-231.621-8h227.398c-1.254-11.281-7.773-21.309-17.641-26.785-1.27-.703-2.059-2.043-2.059-3.496v-35.168l-24 12.324v13.125c0 2.211-1.789 4-4 4h-24c-1.258 0-2.438-.59-3.195-1.594-.754-1.004-.996-2.301-.648-3.508l5.855-20.414c.223-.777-.094-1.355-.305-1.633-.207-.277-.68-.742-1.484-.742s-1.516.512-1.77 1.27l-10.66 31.891c-.543 1.629-2.074 2.73-3.793 2.73h-68c-2.211 0-4-1.789-4-4v-16h-23.999c-2.211 0-4-1.789-4-4v-7.43l-12 9.859v16.039c0 1.793-1.191 3.367-2.918 3.852-13.457 3.774-23.207 15.672-24.781 29.68z" fill="#4c241d"/><circle cx="70" cy="226" fill="#b5a19c" r="22"/><path d="m70 252c-14.336 0-26-11.664-26-26s11.664-26 26-26 26 11.664 26 26-11.664 26-26 26zm0-44c-9.926 0-18 8.074-18 18s8.074 18 18 18 18-8.074 18-18-8.074-18-18-18z" fill="#4c241d"/><circle cx="230" cy="226" fill="#b5a19c" r="22"/><path d="m230 252c-14.336 0-26-11.664-26-26s11.664-26 26-26 26 11.664 26 26-11.664 26-26 26zm0-44c-9.926 0-18 8.074-18 18s8.074 18 18 18 18-8.074 18-18-8.074-18-18-18z" fill="#4c241d"/><circle cx="230" cy="226" fill="#6b4f5b" r="8.108"/><path d="m230 238.109c-6.676 0-12.109-5.434-12.109-12.109s5.434-12.109 12.109-12.109 12.109 5.434 12.109 12.109-5.433 12.109-12.109 12.109zm0-16.218c-2.266 0-4.109 1.844-4.109 4.109s1.844 4.109 4.109 4.109 4.109-1.844 4.109-4.109-1.843-4.109-4.109-4.109z" fill="#4c241d"/><circle cx="70" cy="226" fill="#6b4f5b" r="8.108"/><path d="m70 238.109c-6.676 0-12.109-5.434-12.109-12.109s5.433-12.109 12.109-12.109 12.109 5.433 12.109 12.109-5.433 12.109-12.109 12.109zm0-16.218c-2.266 0-4.109 1.844-4.109 4.109s1.844 4.109 4.109 4.109 4.109-1.844 4.109-4.109-1.843-4.109-4.109-4.109z" fill="#4c241d"/><path d="m138.462 192h-34.462v-20h56z" fill="#9dc1e4"/><g fill="#4c241d"><path d="m138.461 196h-34.461c-2.211 0-4-1.789-4-4v-20c0-2.211 1.789-4 4-4h56c1.645 0 3.121 1.008 3.723 2.539s.203 3.273-1 4.391l-21.539 20c-.743.687-1.715 1.07-2.723 1.07zm-30.461-8h28.891l12.922-12h-41.813z"/><path d="m80 196h-24c-2.211 0-4-1.789-4-4s1.789-4 4-4h24c2.211 0 4 1.789 4 4s-1.789 4-4 4z"/><path d="m244 196h-20c-2.211 0-4-1.789-4-4s1.789-4 4-4h20c2.211 0 4 1.789 4 4s-1.789 4-4 4z"/><path d="m188 216h-84c-2.211 0-4-1.789-4-4s1.789-4 4-4h84c2.211 0 4 1.789 4 4s-1.789 4-4 4z"/></g><circle cx="218" cy="66" fill="#fc8c29" r="26"/><path d="m218 96c-16.543 0-30-13.457-30-30s13.457-30 30-30 30 13.457 30 30-13.457 30-30 30zm0-52c-12.129 0-22 9.871-22 22s9.871 22 22 22 22-9.871 22-22-9.871-22-22-22z" fill="#4c241d"/><path d="m200 252h-60c-2.211 0-4-1.789-4-4s1.789-4 4-4h60c2.211 0 4 1.789 4 4s-1.789 4-4 4z" fill="#4c241d"/><path d="m172 268h-136c-2.211 0-4-1.789-4-4s1.789-4 4-4h136c2.211 0 4 1.789 4 4s-1.789 4-4 4z" fill="#4c241d"/><path d="m258.664 268h-62.664c-2.211 0-4-1.789-4-4s1.789-4 4-4h62.664c2.211 0 4 1.789 4 4s-1.789 4-4 4z" fill="#4c241d"/></svg>